<?xml version="1.0" standalone="no"?>
<!DOCTYPE svg PUBLIC "-//W3C//DTD SVG 20010904//EN"
 "http://www.w3.org/TR/2001/REC-SVG-20010904/DTD/svg10.dtd">
<svg version="1.0" xmlns="http://www.w3.org/2000/svg"
 width="640.000000pt" height="640.000000pt" viewBox="0 0 640.000000 640.000000"
 preserveAspectRatio="xMidYMid meet">
<metadata>
Created by potrace 1.14, written by Peter Selinger 2001-2017
</metadata>
<g transform="translate(0.000000,640.000000) scale(0.100000,-0.100000)"
fill="#000000" stroke="none">
<path d="M575 4291 c-75 -19 -144 -76 -179 -151 -21 -45 -21 -50 -24 -1008
l-2 -963 24 -24 c14 -14 38 -25 53 -26 15 0 124 -1 240 -1 181 -1 216 2 238
16 30 20 27 -12 30 376 1 279 -1 319 -16 350 -19 39 -41 61 -81 81 -24 13 -13
14 110 15 129 0 313 10 357 18 11 2 40 7 65 11 25 4 81 16 125 26 44 10 91 17
104 14 29 -5 67 -39 69 -60 0 -8 1 -185 2 -392 0 -208 3 -387 6 -400 13 -50
38 -55 288 -56 245 0 269 4 286 47 4 12 8 487 8 1056 l-1 1033 -23 24 c-22 22
-29 23 -177 23 -190 0 -229 -11 -304 -85 -70 -70 -81 -110 -81 -295 -2 -392 1
-355 -27 -382 -38 -38 -202 -96 -320 -113 -22 -3 -45 -8 -52 -10 -6 -2 -67 -7
-136 -11 -111 -6 -128 -4 -156 12 -17 10 -34 27 -38 39 -4 11 -7 191 -8 400 0
209 -4 390 -9 403 -4 13 -19 27 -33 33 -28 10 -293 11 -338 0z"/>
<path d="M2621 4284 c-89 -26 -155 -86 -182 -166 -14 -41 -17 -80 -16 -171 3
-167 -16 -157 292 -157 151 0 254 -4 274 -11 27 -10 51 -36 57 -61 1 -5 2
-354 3 -777 l1 -770 24 -28 24 -28 251 0 c247 0 251 0 273 23 l23 23 0 753 0
752 -27 41 c-15 23 -44 49 -70 62 l-43 21 358 0 c215 0 366 4 377 10 10 5 22
22 27 37 11 33 11 388 -1 420 -4 12 -17 25 -29 30 -38 13 -1571 11 -1616 -3z"/>
<path d="M4735 4290 c-96 -4 -128 -10 -160 -27 -54 -28 -100 -73 -127 -125
l-23 -43 -3 -968 -3 -967 25 -25 25 -25 235 0 c231 0 235 0 262 23 l27 23 0
290 c0 200 -4 300 -12 326 -13 39 -64 84 -109 98 -15 5 182 9 438 9 487 2 484
1 507 46 12 23 11 380 -1 406 -16 36 -49 39 -440 39 l-383 0 0 149 c0 120 -4
157 -17 185 -16 35 -72 86 -94 86 -6 0 -13 3 -15 8 -3 4 241 7 541 6 301 0
558 3 571 8 47 17 50 31 51 225 0 191 -6 222 -44 242 -23 13 -1017 21 -1251
11z"/>
</g>
</svg>
